<?xml version="1.0" encoding="UTF-8"?>
<svg xmlns="http://www.w3.org/2000/svg" viewBox="76 92 1388 293" width="1388" height="293">
<path d="M281.05 142.36C278.82 139.14 273.71 137.74 270.18 136.01C261.63 131.81 252.97 127.83 244.38 123.73C231.8 117.71 219.21 111.72 206.7 105.57C203.21 103.86 192.1 97.54 188.91 97.41C186.44 97.31 183.61 99.37 181.42 100.37C175.63 103.02 170.05 106.13 164.31 108.87C149.64 115.88 135 123.01 120.31 129.99C112.9 133.51 103.97 136.48 97.36 141.34C98.3 146.4 107.26 146.64 110.55 150.51C110.1 155.8 111.56 164.85 110.24 169.51C109.52 172.02 106.68 172.96 106.17 175.73C105.62 178.7 107.61 180.69 107.59 183.48C107.57 187.41 105.58 191.14 105.66 195.12C109.82 197.63 117.31 197.51 121.54 195.12C121.58 191.18 119.66 187.38 119.77 183.5C119.93 177.52 124.77 175.03 116.99 170.29C116.99 164.6 116.99 158.91 116.99 153.22C122.03 153.54 127.63 157.76 132.29 159.79C144.71 165.21 157.08 171.22 169.27 177.16C173.63 179.28 183.81 185.38 188.13 185.89C192.12 186.36 205.82 178.48 210.26 176.5C227.27 168.9 243.77 160.18 260.76 152.52C265.36 150.44 278.42 145.77 281.05 142.36ZM107.08 202.15C104.78 202.15 102.47 202.15 100.16 202.15C95.5 201.57 88.57 200.87 84.18 202.49C81.88 207.81 83.18 215.7 83.27 221.49C83.5 236.04 84.13 250.65 85.79 265.1C91.05 310.96 116.51 341.42 155.3 364.15C163.17 368.76 171.44 373.03 179.72 376.9C182.2 378.05 186.06 381.06 188.84 380.73C191.84 380.37 195.98 377.34 198.71 375.96C206.43 372.06 214.26 368.39 221.69 363.96C248.09 348.22 270.61 328.44 282.81 299.54C289.64 283.37 291.61 265.21 292.54 247.87C293.09 237.53 293.15 227.17 293.74 216.84C293.99 212.38 295.2 205.9 292.87 202.04C277.72 199.01 260.8 205.84 246.75 197.44C246.13 188.13 245.51 178.82 244.89 169.51C240.02 169.13 235.44 172.75 231.1 174.87C222.42 179.12 213.47 182.92 204.88 187.37C201.31 189.23 193.45 194.37 189.69 194.59C185.68 194.82 176.97 189.13 173.15 187.24C164.46 182.95 155.73 178.75 146.96 174.64C142.34 172.47 138.05 169.84 133.05 168.6C129.63 176.64 132.55 188.58 130.86 197.44C126.23 200.05 120.14 201.91 114.82 201.95C112.24 201.97 109.63 201.68 107.08 202.15ZM493.01 190.46C484.73 191.75 476.44 193.05 468.16 194.34C468.16 230.87 468.16 267.41 468.16 303.94C476.35 303.94 484.54 303.94 492.74 303.94C495.41 288.51 490.64 271.97 493.65 256.53C494.76 250.83 498.4 242.37 505.44 242.76C511.9 243.12 511.29 252.7 511.3 257.18C511.33 267.27 511.3 277.35 511.3 287.44C511.3 292.9 510.93 298.53 511.63 303.94C519.74 303.94 527.85 303.94 535.96 303.94C537.5 291 536.26 277.21 536.26 264.16C536.26 254.92 537.28 245.01 533.78 236.25C527.36 220.18 505.81 221.4 493.8 230.32C492.32 226.58 493.05 221.69 493.05 217.61C493.05 208.57 493.23 199.5 493.01 190.46ZM659.49 190.46C651.31 191.75 643.12 193.05 634.94 194.34C634.18 202.51 634.72 210.95 634.72 219.17C634.72 234.94 634.72 250.72 634.72 266.49C634.72 275.77 632.45 288.4 637.97 296.54C646.07 308.5 664.12 304.98 675.47 300.63C675.66 296.16 675.13 289.08 673.01 285.18C669.45 285.09 663.21 287.7 660.63 283.9C659.15 281.72 659.55 278.28 659.55 275.8C659.54 269.85 659.55 263.9 659.55 257.96C659.55 235.48 660.03 212.93 659.49 190.46ZM1047.3 190.24C1039.03 191.6 1030.75 192.97 1022.48 194.34C1022.48 229.62 1022.48 264.9 1022.48 300.18C1031.97 303.69 1043.86 304.96 1053.94 304.88C1081.01 304.68 1094.1 282.84 1093.04 257.96C1092.24 239.21 1080.9 220.35 1059.39 224.28C1054.43 225.19 1051.4 228.38 1047.3 230.73C1047.3 217.23 1047.3 203.74 1047.3 190.24ZM1409.83 190.09C1401.54 191.5 1393.25 192.92 1384.97 194.34C1384.97 230.87 1384.97 267.41 1384.97 303.94C1393.15 303.94 1401.33 303.94 1409.51 303.94C1411.55 287.88 1407.87 270.14 1409.96 254.21C1410.77 247.98 1416.46 241.33 1423.2 242.16C1428.9 242.85 1430.1 249.99 1427.64 254.23C1424.66 259.36 1418.78 260.39 1413.87 262.61C1413.94 273.39 1424.3 295.29 1430.98 303.95C1440.12 303.95 1449.26 303.95 1458.4 303.95C1451.43 292.5 1444.46 281.04 1437.49 269.59C1438.81 267.79 1440.6 267.2 1442.47 265.94C1446.48 263.23 1449.72 259.4 1451.67 254.96C1459.99 236.07 1444.41 222.59 1426.33 224.08C1418.86 224.69 1415.43 228.94 1409.83 230.05C1409.83 216.73 1409.83 203.41 1409.83 190.09ZM387.52 206.5C382.84 201.49 373.85 199.22 367.35 197.84C344.96 193.09 315.82 200.15 317.18 228.48C317.9 243.45 329.1 251.84 341.58 257.77C349.44 261.5 361.36 264.13 360.8 275.02C359.9 292.49 338.99 284.34 329.88 279.52C327.35 278.18 325.05 276.43 322.35 275.47C319.67 281.53 316.99 287.59 314.31 293.64C338.11 309.25 382.35 312.01 388.28 276.1C389.06 271.36 389.01 266.55 387.92 261.84C384.6 247.53 370.63 242.91 358.9 237.3C352.98 234.47 344.66 230.04 345.18 222.27C345.52 217.22 350.53 215.1 354.93 214.96C365.44 214.63 370.06 221.05 378.52 223.05C381.52 217.53 384.52 212.01 387.52 206.5ZM828.52 197.48C828.52 232.97 828.52 268.45 828.52 303.94C837.16 303.94 845.8 303.94 854.44 303.94C854.44 288.74 854.44 273.53 854.44 258.33C866.71 258.33 878.99 258.33 891.26 258.33C891.26 273.53 891.26 288.74 891.26 303.94C899.86 303.94 908.45 303.94 917.04 303.94C917.04 268.45 917.04 232.96 917.04 197.47C908.45 197.47 899.86 197.47 891.27 197.47C891.27 211.33 891.27 225.19 891.27 239.05C879.03 239.05 866.79 239.05 854.55 239.05C854.05 229.62 854.44 220.08 854.44 210.63C854.44 206.29 854.96 201.63 853.78 197.48C845.36 197.48 836.94 197.48 828.52 197.48ZM1094.28 197.48C1104.01 232.96 1113.73 268.45 1123.46 303.94C1130.3 303.94 1137.14 303.94 1143.97 303.94C1146.7 297.86 1148.11 291.03 1150.13 284.67C1153.38 274.49 1156.91 264.3 1159.68 253.98C1160.99 249.11 1162.4 236.17 1164.88 232.92C1167.07 238.6 1167.61 245.04 1169.23 250.93C1172.35 262.25 1176.34 273.32 1179.71 284.56C1181.61 290.92 1183.12 297.96 1186 303.94C1192.83 303.94 1199.65 303.94 1206.48 303.94C1208.89 297.45 1210.33 290.53 1212.18 283.86C1216.84 267.07 1221.45 250.26 1226.18 233.49C1228.52 225.19 1230.76 216.86 1233.11 208.55C1234.13 204.93 1235.78 201.16 1235.48 197.46C1227.2 197.46 1218.93 197.46 1210.65 197.46C1207.89 202.8 1207.26 209.51 1205.75 215.32C1202.68 227.13 1199.54 239.06 1197.3 251.05C1196.37 256.01 1196.35 261.47 1194.36 266.13C1192.86 259.07 1191.59 251.93 1189.82 244.92C1185.84 229.16 1180.06 213.85 1175.74 198.18C1169.71 196.33 1161.11 197.06 1154.79 197.69C1151.64 203.14 1150.48 210.6 1148.74 216.68C1145.93 226.48 1142.69 236.16 1140.1 246.03C1138.39 252.55 1137.5 259.3 1135.4 265.71C1133.49 258.11 1132.41 250.27 1130.84 242.59C1129.06 233.9 1126.46 225.34 1124.32 216.74C1122.77 210.53 1121.93 203.2 1119.11 197.48C1110.83 197.48 1102.55 197.48 1094.28 197.48ZM253.69 298.79C249.82 298.91 245.95 299.03 242.08 299.15C230.86 299.37 218.81 303.24 209.03 308.71C207.46 309.59 200.16 313.75 200.08 315.4C200 317.1 200.36 315.33 200.55 317.18C213.35 312.49 226.45 308.87 240.11 307.94C247.52 307.44 255.43 308.84 262.68 307.61C263 281.75 263.32 255.89 263.64 230.03C266.14 229.12 267.62 228.97 269.73 230.8C270.55 237.39 269.99 244.32 270.01 250.97C270.06 264.68 270.03 278.39 270.03 292.09C270.03 297.63 271.63 310.79 268.82 315.08C263.79 317.59 246.9 315.22 240.11 315.58C220.64 316.59 206.01 320.09 188.91 329.27C184.92 327.28 181.19 324.78 177.01 323.05C164.45 317.84 150.41 316.16 136.93 315.59C130.42 315.31 124.03 315.75 117.54 315.97C114.01 316.1 110.54 316.83 107.64 314.59C105.37 308.9 106.85 297.72 106.81 291.32C106.73 277.87 106.8 264.42 106.75 250.97C106.73 244.56 105.54 236.48 107.45 230.39C109.68 229.24 111.06 229.01 113.33 230.03C115.39 235.34 114.04 245.77 114.05 251.75C114.09 264.42 114.05 277.09 114.09 289.76C114.11 295.62 113.46 301.81 114.34 307.61C118.59 308.5 123.23 307.66 127.62 307.69C134.95 307.74 142.3 307.93 149.53 309.24C154.98 310.22 160.6 311.45 165.88 313.15C170.15 314.51 174.66 317.01 179.14 316.92C170.45 306.32 149.2 298.94 135.88 299.14C131.7 299.02 127.53 298.91 123.35 298.8C120.76 296.88 121.91 282.05 121.91 278.13C121.93 263.9 121.93 249.68 121.92 235.46C121.92 228.5 120.85 220.63 122.19 213.85C126.57 212.95 131.73 214.02 136.13 214.61C149.34 216.4 163.05 221.19 173.98 229C179.15 232.69 183.54 237.69 188.91 240.97C194.3 238.01 198.7 232.59 203.81 228.97C215.63 220.61 240.12 211.46 254.48 213.74C256.28 218.45 255.08 227.77 255.11 233.13C255.21 248.39 255.09 263.65 255.09 278.9C255.08 282.93 256.36 296.53 253.69 298.79ZM458.6 234.68C450.36 219.82 426.8 221.26 414.5 229.49C404.46 236.2 398.91 248.5 398.05 260.28C396.75 278.3 401.46 298.41 421.13 303.77C426.83 305.32 432.85 305.43 438.72 305.09C444.73 304.74 452.15 303.52 457.07 299.85C455.61 294.52 454.15 289.19 452.68 283.86C446.39 285.17 440.45 288.03 433.96 285.67C422.11 281.34 422.08 257.39 427.08 248.23C431.87 239.45 440.26 240.88 446.48 246.94C450.52 242.86 454.56 238.77 458.6 234.68ZM580.89 223.76C556.89 226.29 548.04 247.05 548.92 268.84C549.32 278.7 551.71 289.2 558.89 296.44C567.54 305.15 581.47 306.79 593.09 304.8C623.81 299.51 630.76 252.41 611.93 232.53C604.16 224.34 591.6 222.63 580.89 223.76ZM1268.16 223.73C1244.25 226.14 1235.36 246.31 1235.89 268.04C1236.14 278.35 1238.68 289.66 1246.44 297.03C1255.06 305.22 1268.44 306.6 1279.7 304.85C1311.17 299.97 1317.87 251.24 1298.33 231.97C1290.58 224.32 1278.57 222.67 1268.16 223.73ZM188.91 254.35C184.17 251.51 180.77 245.69 176.39 242.12C166.07 233.73 143.95 223.04 130.56 224.6C128.16 229.15 129.64 237.23 129.62 242.44C129.59 252.53 129.71 262.61 129.6 272.7C129.54 278.06 128.67 284.66 130.34 289.76C133.23 290.65 136.24 290.43 139.26 290.72C145.04 291.26 150.81 292.17 156.36 293.92C165.27 296.72 173.58 300.9 181.02 306.54C183.5 308.42 185.53 310.89 188.13 312.55C191.45 310.95 194.21 307.68 197.23 305.46C201.51 302.31 206.67 299.32 211.63 297.4C218.93 294.57 226.32 292.44 234.05 291.23C238.34 290.56 242.89 290.91 247.01 289.76C249.08 283.42 247.55 274.72 247.57 268.04C247.6 260.03 247.49 252.01 247.59 243.99C247.67 237.83 248.44 230.95 247.1 224.95C243.03 223.71 237.99 225.57 233.86 226.35C221.74 228.63 209.81 234.7 200.54 242.83C196.6 246.29 193.43 251.85 188.91 254.35ZM749.06 228.48C725.34 221.38 695.97 219.7 683.26 245.33C681.26 249.39 679.96 253.95 679.25 258.41C677.27 270.88 679.38 287.01 688.25 296.6C696.32 305.31 712.73 308.24 722.58 300.96C726.27 298.23 728.49 294.33 730.42 290.28C732.85 295.4 733.77 300.93 738.18 304.9C742.6 304.23 754.66 301.17 757.72 298.3C746.28 284.91 749.55 258.14 749.55 241.66C749.55 237.3 749.94 232.73 749.06 228.48ZM779.3 224.06C773.03 226.05 766.77 228.04 760.5 230.03C761.07 232.43 762.67 234.37 763.7 236.68C765.99 241.78 767.47 247.74 767.91 253.3C768.85 265.12 768.26 277.15 768.26 288.99C768.26 293.84 767.63 299.22 768.67 303.94C776.73 303.94 784.8 303.94 792.87 303.94C794.2 290.28 792.47 276.33 793.16 262.61C793.47 256.36 797.16 249.21 803.81 247.89C806.87 247.28 809.71 248.38 812.66 248.9C814.73 241.31 816.8 233.71 818.87 226.12C816.24 224.32 812.81 223.99 809.56 223.96C797.55 223.83 794.16 228.74 787.06 236.82C784.07 232.98 783.44 227.44 779.3 224.06ZM1335.56 224.05C1329.31 226.04 1323.05 228.04 1316.8 230.03C1317.42 232.9 1319.52 235.5 1320.65 238.34C1322.41 242.77 1323.61 247.79 1324.05 252.53C1325.18 264.61 1324.63 276.87 1324.63 288.99C1324.63 293.87 1324.07 299.16 1324.98 303.94C1333 303.94 1341.01 303.94 1349.03 303.94C1350.79 291.29 1349.18 277.73 1349.39 264.94C1349.5 258.03 1351.99 250.03 1359.5 248.02C1362.74 247.15 1365.78 248.45 1368.92 248.76C1371.19 243.25 1375.08 231.06 1374.62 225.37C1366.25 223.14 1356.67 223.19 1349.72 229.1C1347.06 231.37 1345.53 234.43 1343.27 237.01C1340.45 232.77 1339.61 227.62 1335.56 224.05ZM958.91 225.01C950.61 225.01 942.32 225.01 934.03 225.01C933.72 238.05 933.97 251.12 933.97 264.16C933.97 272.49 933.17 281.29 935.24 289.44C939.3 305.49 957.71 307.72 970.97 301.93C976.49 299.51 979.1 295.37 983.34 291.59C985.15 296.43 987 300.73 990.32 304.76C994.48 304.6 1007.23 301.01 1010.13 298.3C1002.94 288.88 1002.11 276.37 1002.06 264.94C1002.01 251.66 1002.62 238.26 1001.96 225.01C993.73 225.01 985.5 225.01 977.27 225.01C976.82 235.18 977.15 245.44 977.15 255.63C977.15 261.38 977.55 267.33 976.32 272.98C975.22 278.08 971.83 286.28 965.5 286.4C958.69 286.52 958.99 277.38 958.97 272.7C958.92 256.81 959.28 240.89 958.91 225.01ZM583.11 242.26C588.43 241.28 592.27 245.12 593.85 249.82C596.59 257.94 596.42 268.82 594.74 277.16C593.91 281.29 591.67 286.38 586.87 286.78C581.48 287.24 578.25 283.12 576.83 278.45C574.36 270.37 574.65 260.86 575.93 252.59C576.56 248.46 578.4 243.12 583.11 242.26ZM724.22 243.3C726.09 251.78 725.22 270.21 721.73 278.34C720.13 282.05 716.64 287.83 711.76 286.44C705.61 284.69 705.38 275.54 705.22 270.37C704.83 257.38 705.28 237.28 724.22 243.3ZM1047.73 285.45C1045.85 277.07 1047.03 258.98 1050.27 250.84C1051.94 246.65 1055.23 240.9 1060.63 242.4C1066.11 243.92 1066.53 252.67 1066.75 257.18C1067.35 269.42 1066.85 292.71 1047.73 285.45ZM1269.8 242.32C1283.14 239.23 1282.99 261.79 1282.53 269.59C1282.4 271.91 1282.25 274.3 1281.79 276.58C1280.95 280.75 1279.15 286.16 1274.18 286.76C1261.67 288.26 1261.94 268.17 1262.22 260.28C1262.3 257.94 1262.56 255.63 1262.87 253.3C1263.44 249.07 1264.97 243.44 1269.8 242.32ZM182.7 271.37C180.25 270.24 178.4 268.04 176.26 266.35C172 263 167.65 259.79 162.82 257.28C158.24 254.9 153.45 252.86 148.43 251.57C145.37 250.78 142.12 250.57 139.26 249.25C138.58 247.09 138.6 246.16 139.23 243.99C142.82 242.62 147.12 244.36 150.7 245.42C160.04 248.2 168.52 252.51 175.8 259.04C178.62 261.56 185.59 267.43 182.7 271.37ZM238.02 243.99C239 246.09 238.97 247.33 237.99 249.42C226.24 253.26 219 253.98 208.09 261.22C205.28 263.09 196.77 271.17 194.34 271.02C193.57 266 197.92 262.39 201.38 259.16C208.4 252.61 217.78 247.87 226.96 245.24C230.5 244.22 234.46 242.84 238.02 243.99ZM182.7 290.13C179.57 288.54 176.99 285.37 174.15 283.18C169.69 279.75 164.71 276.8 159.59 274.48C155.7 272.72 151.6 271.42 147.46 270.36C144.63 269.63 141.47 269.69 139.02 268.04C138.33 266 138.47 265.01 139.26 263.01C143.03 261.74 147.87 263.47 151.59 264.68C160.6 267.62 169.15 271.57 176.23 278.01C179.04 280.56 185.43 286.28 182.7 290.13ZM238.75 263.39C238.75 264.88 238.75 266.36 238.75 267.85C235.71 270.19 231.03 270.19 227.37 271.18C221.69 272.71 216.14 275.23 211.04 278.16C206.55 280.74 198.17 289.25 194.34 290.09C193.53 285.43 197.68 281.81 200.73 278.71C207.59 271.71 217.13 267.7 226.26 264.72C230.21 263.43 234.81 261.68 238.75 263.39Z" fill="#ffffff" fill-rule="evenodd" stroke="#ffffff" stroke-width="0.25" stroke-linejoin="round"/>
<path d="M493.01 190.46C493.23 199.5 493.05 208.57 493.05 217.61C493.05 221.69 492.32 226.58 493.8 230.32C505.81 221.4 527.36 220.18 533.78 236.25C537.28 245.01 536.26 254.92 536.26 264.16C536.26 277.21 537.5 291 535.96 303.94C527.85 303.94 519.74 303.94 511.63 303.94C510.93 298.53 511.3 292.9 511.3 287.44C511.3 277.35 511.33 267.27 511.3 257.18C511.29 252.7 511.9 243.12 505.44 242.76C498.4 242.37 494.76 250.83 493.65 256.53C490.64 271.97 495.41 288.51 492.74 303.94C484.54 303.94 476.35 303.94 468.16 303.94C468.16 267.41 468.16 230.87 468.16 194.34C476.44 193.05 484.73 191.75 493.01 190.46ZM659.49 190.46C660.03 212.93 659.55 235.48 659.55 257.96C659.55 263.9 659.54 269.85 659.55 275.8C659.55 278.28 659.15 281.72 660.63 283.9C663.21 287.7 669.45 285.09 673.01 285.18C675.13 289.08 675.66 296.16 675.47 300.63C664.12 304.98 646.07 308.5 637.97 296.54C632.45 288.4 634.72 275.77 634.72 266.49C634.72 250.72 634.72 234.94 634.72 219.17C634.72 210.95 634.18 202.51 634.94 194.34C643.12 193.05 651.31 191.75 659.49 190.46ZM1047.3 190.24C1047.3 203.74 1047.3 217.23 1047.3 230.73C1051.4 228.38 1054.43 225.19 1059.39 224.28C1080.9 220.35 1092.24 239.21 1093.04 257.96C1094.1 282.84 1081.01 304.68 1053.94 304.88C1043.86 304.96 1031.97 303.69 1022.48 300.18C1022.48 264.9 1022.48 229.62 1022.48 194.34C1030.75 192.97 1039.03 191.6 1047.3 190.24ZM1409.83 190.09C1409.83 203.41 1409.83 216.73 1409.83 230.05C1415.43 228.94 1418.86 224.69 1426.33 224.08C1444.41 222.59 1459.99 236.07 1451.67 254.96C1449.72 259.4 1446.48 263.23 1442.47 265.94C1440.6 267.2 1438.81 267.79 1437.49 269.59C1444.46 281.04 1451.43 292.5 1458.4 303.95C1449.26 303.95 1440.12 303.95 1430.98 303.95C1424.3 295.29 1413.94 273.39 1413.87 262.61C1418.78 260.39 1424.66 259.36 1427.64 254.23C1430.1 249.99 1428.9 242.85 1423.2 242.16C1416.46 241.33 1410.77 247.98 1409.96 254.21C1407.87 270.14 1411.55 287.88 1409.51 303.94C1401.33 303.94 1393.15 303.94 1384.97 303.94C1384.97 267.41 1384.97 230.87 1384.97 194.34C1393.25 192.92 1401.54 191.5 1409.83 190.09ZM387.52 206.5C384.52 212.01 381.52 217.53 378.52 223.05C370.06 221.05 365.44 214.63 354.93 214.96C350.53 215.1 345.52 217.22 345.18 222.27C344.66 230.04 352.98 234.47 358.9 237.3C370.63 242.91 384.6 247.53 387.92 261.84C389.01 266.55 389.06 271.36 388.28 276.1C382.35 312.01 338.11 309.25 314.31 293.64C316.99 287.59 319.67 281.53 322.35 275.47C325.05 276.43 327.35 278.18 329.88 279.52C338.99 284.34 359.9 292.49 360.8 275.02C361.36 264.13 349.44 261.5 341.58 257.77C329.1 251.84 317.9 243.45 317.18 228.48C315.82 200.15 344.96 193.09 367.35 197.84C373.85 199.22 382.84 201.49 387.52 206.5ZM828.52 197.48C836.94 197.48 845.36 197.48 853.78 197.48C854.96 201.63 854.44 206.29 854.44 210.63C854.44 220.08 854.05 229.62 854.55 239.05C866.79 239.05 879.03 239.05 891.27 239.05C891.27 225.19 891.27 211.33 891.27 197.47C899.86 197.47 908.45 197.47 917.04 197.47C917.04 232.96 917.04 268.45 917.04 303.94C908.45 303.94 899.86 303.94 891.26 303.94C891.26 288.74 891.26 273.53 891.26 258.33C878.99 258.33 866.71 258.33 854.44 258.33C854.44 273.53 854.44 288.74 854.44 303.94C845.8 303.94 837.16 303.94 828.52 303.94C828.52 268.45 828.52 232.97 828.52 197.48ZM1094.28 197.48C1102.55 197.48 1110.83 197.48 1119.11 197.48C1121.93 203.2 1122.77 210.53 1124.32 216.74C1126.46 225.34 1129.06 233.9 1130.84 242.59C1132.41 250.27 1133.49 258.11 1135.4 265.71C1137.5 259.3 1138.39 252.55 1140.1 246.03C1142.69 236.16 1145.93 226.48 1148.74 216.68C1150.48 210.6 1151.64 203.14 1154.79 197.69C1161.11 197.06 1169.71 196.33 1175.74 198.18C1180.06 213.85 1185.84 229.16 1189.82 244.92C1191.59 251.93 1192.86 259.07 1194.36 266.13C1196.35 261.47 1196.37 256.01 1197.3 251.05C1199.54 239.06 1202.68 227.13 1205.75 215.32C1207.26 209.51 1207.89 202.8 1210.65 197.46C1218.93 197.46 1227.2 197.46 1235.48 197.46C1235.78 201.16 1234.13 204.93 1233.11 208.55C1230.76 216.86 1228.52 225.19 1226.18 233.49C1221.45 250.26 1216.84 267.07 1212.18 283.86C1210.33 290.53 1208.89 297.45 1206.48 303.94C1199.65 303.94 1192.83 303.94 1186 303.94C1183.12 297.96 1181.61 290.92 1179.71 284.56C1176.34 273.32 1172.35 262.25 1169.23 250.93C1167.61 245.04 1167.07 238.6 1164.88 232.92C1162.4 236.17 1160.99 249.11 1159.68 253.98C1156.91 264.3 1153.38 274.49 1150.13 284.67C1148.11 291.03 1146.7 297.86 1143.97 303.94C1137.14 303.94 1130.3 303.94 1123.46 303.94C1113.73 268.45 1104.01 232.96 1094.28 197.48ZM107.08 202.15C104.78 202.15 102.47 202.15 100.16 202.15C102.47 202.15 104.78 202.15 107.08 202.15ZM458.6 234.68C454.56 238.77 450.52 242.86 446.48 246.94C440.26 240.88 431.87 239.45 427.08 248.23C422.08 257.39 422.11 281.34 433.96 285.67C440.45 288.03 446.39 285.17 452.68 283.86C454.15 289.19 455.61 294.52 457.07 299.85C452.15 303.52 444.73 304.74 438.72 305.09C432.85 305.43 426.83 305.32 421.13 303.77C401.46 298.41 396.75 278.3 398.05 260.28C398.91 248.5 404.46 236.2 414.5 229.49C426.8 221.26 450.36 219.82 458.6 234.68ZM580.89 223.76C591.6 222.63 604.16 224.34 611.93 232.53C630.76 252.41 623.81 299.51 593.09 304.8C581.47 306.79 567.54 305.15 558.89 296.44C551.71 289.2 549.32 278.7 548.92 268.84C548.04 247.05 556.89 226.29 580.89 223.76ZM1268.16 223.73C1278.57 222.67 1290.58 224.32 1298.33 231.97C1317.87 251.24 1311.17 299.97 1279.7 304.85C1268.44 306.6 1255.06 305.22 1246.44 297.03C1238.68 289.66 1236.14 278.35 1235.89 268.04C1235.36 246.31 1244.25 226.14 1268.16 223.73ZM749.06 228.48C749.94 232.73 749.55 237.3 749.55 241.66C749.55 258.14 746.28 284.91 757.72 298.3C754.66 301.17 742.6 304.23 738.18 304.9C733.77 300.93 732.85 295.4 730.42 290.28C728.49 294.33 726.27 298.23 722.58 300.96C712.73 308.24 696.32 305.31 688.25 296.6C679.38 287.01 677.27 270.88 679.25 258.41C679.96 253.95 681.26 249.39 683.26 245.33C695.97 219.7 725.34 221.38 749.06 228.48ZM779.3 224.06C783.44 227.44 784.07 232.98 787.06 236.82C794.16 228.74 797.55 223.83 809.56 223.96C812.81 223.99 816.24 224.32 818.87 226.12C816.8 233.71 814.73 241.31 812.66 248.9C809.71 248.38 806.87 247.28 803.81 247.89C797.16 249.21 793.47 256.36 793.16 262.61C792.47 276.33 794.2 290.28 792.87 303.94C784.8 303.94 776.73 303.94 768.67 303.94C767.63 299.22 768.26 293.84 768.26 288.99C768.26 277.15 768.85 265.12 767.91 253.3C767.47 247.74 765.99 241.78 763.7 236.68C762.67 234.37 761.07 232.43 760.5 230.03C766.77 228.04 773.03 226.05 779.3 224.06ZM1335.56 224.05C1339.61 227.62 1340.45 232.77 1343.27 237.01C1345.53 234.43 1347.06 231.37 1349.72 229.1C1356.67 223.19 1366.25 223.14 1374.62 225.37C1375.08 231.06 1371.19 243.25 1368.92 248.76C1365.78 248.45 1362.74 247.15 1359.5 248.02C1351.99 250.03 1349.5 258.03 1349.39 264.94C1349.18 277.73 1350.79 291.29 1349.03 303.94C1341.01 303.94 1333 303.94 1324.98 303.94C1324.07 299.16 1324.63 293.87 1324.63 288.99C1324.63 276.87 1325.18 264.61 1324.05 252.53C1323.61 247.79 1322.41 242.77 1320.65 238.34C1319.52 235.5 1317.42 232.9 1316.8 230.03C1323.05 228.04 1329.31 226.04 1335.56 224.05ZM958.91 225.01C959.28 240.89 958.92 256.81 958.97 272.7C958.99 277.38 958.69 286.52 965.5 286.4C971.83 286.28 975.22 278.08 976.32 272.98C977.55 267.33 977.15 261.38 977.15 255.63C977.15 245.44 976.82 235.18 977.27 225.01C985.5 225.01 993.73 225.01 1001.96 225.01C1002.62 238.26 1002.01 251.66 1002.06 264.94C1002.11 276.37 1002.94 288.88 1010.13 298.3C1007.23 301.01 994.48 304.6 990.32 304.76C987 300.73 985.15 296.43 983.34 291.59C979.1 295.37 976.49 299.51 970.97 301.93C957.71 307.72 939.3 305.49 935.24 289.44C933.17 281.29 933.97 272.49 933.97 264.16C933.97 251.12 933.72 238.05 934.03 225.01C942.32 225.01 950.61 225.01 958.91 225.01ZM583.11 242.26C578.4 243.12 576.56 248.46 575.93 252.59C574.65 260.86 574.36 270.37 576.83 278.45C578.25 283.12 581.48 287.24 586.87 286.78C591.67 286.38 593.91 281.29 594.74 277.16C596.42 268.82 596.59 257.94 593.85 249.82C592.27 245.12 588.43 241.28 583.11 242.26ZM724.22 243.3C705.28 237.28 704.83 257.38 705.22 270.37C705.38 275.54 705.61 284.69 711.76 286.44C716.64 287.83 720.13 282.05 721.73 278.34C725.22 270.21 726.09 251.78 724.22 243.3ZM1047.73 285.45C1066.85 292.71 1067.35 269.42 1066.75 257.18C1066.53 252.67 1066.11 243.92 1060.63 242.4C1055.23 240.9 1051.94 246.65 1050.27 250.84C1047.03 258.98 1045.85 277.07 1047.73 285.45ZM1269.8 242.32C1264.97 243.44 1263.44 249.07 1262.87 253.3C1262.56 255.63 1262.3 257.94 1262.22 260.28C1261.94 268.17 1261.67 288.26 1274.18 286.76C1279.15 286.16 1280.95 280.75 1281.79 276.58C1282.25 274.3 1282.4 271.91 1282.53 269.59C1282.99 261.79 1283.14 239.23 1269.8 242.32ZM123.35 298.8C127.53 298.91 131.7 299.02 135.88 299.14C131.83 299.24 127.79 299.35 123.74 299.46C123.61 299.24 123.48 299.02 123.35 298.8ZM253.69 298.79C253.56 299.01 253.43 299.24 253.3 299.46C249.56 299.36 245.82 299.25 242.08 299.15C245.95 299.03 249.82 298.91 253.69 298.79Z" fill="#000000" fill-rule="evenodd" stroke="#000000" stroke-width="0.25" stroke-linejoin="round"/>
<path d="M281.05 142.36C278.42 145.77 265.36 150.44 260.76 152.52C243.77 160.18 227.27 168.9 210.26 176.5C205.82 178.48 192.12 186.36 188.13 185.89C183.81 185.38 173.63 179.28 169.27 177.16C157.08 171.22 144.71 165.21 132.29 159.79C127.63 157.76 122.03 153.54 116.99 153.22C116.99 158.91 116.99 164.6 116.99 170.29C124.77 175.03 119.93 177.52 119.77 183.5C119.66 187.38 121.58 191.18 121.54 195.12C117.31 197.51 109.82 197.63 105.66 195.12C105.58 191.14 107.57 187.41 107.59 183.48C107.61 180.69 105.62 178.7 106.17 175.73C106.68 172.96 109.52 172.02 110.24 169.51C111.56 164.85 110.1 155.8 110.55 150.51C107.26 146.64 98.3 146.4 97.36 141.34C103.97 136.48 112.9 133.51 120.31 129.99C135 123.01 149.64 115.88 164.31 108.87C170.05 106.13 175.63 103.02 181.42 100.37C183.61 99.37 186.44 97.31 188.91 97.41C192.1 97.54 203.21 103.86 206.7 105.57C219.21 111.72 231.8 117.71 244.38 123.73C252.97 127.83 261.63 131.81 270.18 136.01C273.71 137.74 278.82 139.14 281.05 142.36ZM100.16 202.15C102.47 202.15 104.78 202.15 107.08 202.15C109.63 201.68 112.24 201.97 114.82 201.95C120.14 201.91 126.23 200.05 130.86 197.44C132.55 188.58 129.63 176.64 133.05 168.6C138.05 169.84 142.34 172.47 146.96 174.64C155.73 178.75 164.46 182.95 173.15 187.24C176.97 189.13 185.68 194.82 189.69 194.59C193.45 194.37 201.31 189.23 204.88 187.37C213.47 182.92 222.42 179.12 231.1 174.87C235.44 172.75 240.02 169.13 244.89 169.51C245.51 178.82 246.13 188.13 246.75 197.44C260.8 205.84 277.72 199.01 292.87 202.04C295.2 205.9 293.99 212.38 293.74 216.84C293.15 227.17 293.09 237.53 292.54 247.87C291.61 265.21 289.64 283.37 282.81 299.54C270.61 328.44 248.09 348.22 221.69 363.96C214.26 368.39 206.43 372.06 198.71 375.96C195.98 377.34 191.84 380.37 188.84 380.73C186.06 381.06 182.2 378.05 179.72 376.9C171.44 373.03 163.17 368.76 155.3 364.15C116.51 341.42 91.05 310.96 85.79 265.1C84.13 250.65 83.5 236.04 83.27 221.49C83.18 215.7 81.88 207.81 84.18 202.49C88.57 200.87 95.5 201.57 100.16 202.15ZM123.35 298.8C123.48 299.02 123.61 299.24 123.74 299.46C127.79 299.35 131.83 299.24 135.88 299.14C149.2 298.94 170.45 306.32 179.14 316.92C174.66 317.01 170.15 314.51 165.88 313.15C160.6 311.45 154.98 310.22 149.53 309.24C142.3 307.93 134.95 307.74 127.62 307.69C123.23 307.66 118.59 308.5 114.34 307.61C113.46 301.81 114.11 295.62 114.09 289.76C114.05 277.09 114.09 264.42 114.05 251.75C114.04 245.77 115.39 235.34 113.33 230.03C111.06 229.01 109.68 229.24 107.45 230.39C105.54 236.48 106.73 244.56 106.75 250.97C106.8 264.42 106.73 277.87 106.81 291.32C106.85 297.72 105.37 308.9 107.64 314.59C110.54 316.83 114.01 316.1 117.54 315.97C124.03 315.75 130.42 315.31 136.93 315.59C150.41 316.16 164.45 317.84 177.01 323.05C181.19 324.78 184.92 327.28 188.91 329.27C206.01 320.09 220.64 316.59 240.11 315.58C246.9 315.22 263.79 317.59 268.82 315.08C271.63 310.79 270.03 297.63 270.03 292.09C270.03 278.39 270.06 264.68 270.01 250.97C269.99 244.32 270.55 237.39 269.73 230.8C267.62 228.97 266.14 229.12 263.64 230.03C263.32 255.89 263 281.75 262.68 307.61C255.43 308.84 247.52 307.44 240.11 307.94C226.45 308.87 213.35 312.49 200.55 317.18C200.36 315.33 200 317.1 200.08 315.4C200.16 313.75 207.46 309.59 209.03 308.71C218.81 303.24 230.86 299.37 242.08 299.15C245.82 299.25 249.56 299.36 253.3 299.46C253.43 299.24 253.56 299.01 253.69 298.79C256.36 296.53 255.08 282.93 255.09 278.9C255.09 263.65 255.21 248.39 255.11 233.13C255.08 227.77 256.28 218.45 254.48 213.74C240.12 211.46 215.63 220.61 203.81 228.97C198.7 232.59 194.3 238.01 188.91 240.97C183.54 237.69 179.15 232.69 173.98 229C163.05 221.19 149.34 216.4 136.13 214.61C131.73 214.02 126.57 212.95 122.19 213.85C120.85 220.63 121.92 228.5 121.92 235.46C121.93 249.68 121.93 263.9 121.91 278.13C121.91 282.05 120.76 296.88 123.35 298.8Z" fill="#154259" fill-rule="evenodd" stroke="#154259" stroke-width="0.25" stroke-linejoin="round"/>
<path d="M188.91 254.35C193.43 251.85 196.6 246.29 200.54 242.83C209.81 234.7 221.74 228.63 233.86 226.35C237.99 225.57 243.03 223.71 247.1 224.95C248.44 230.95 247.67 237.83 247.59 243.99C247.49 252.01 247.6 260.03 247.57 268.04C247.55 274.72 249.08 283.42 247.01 289.76C242.89 290.91 238.34 290.56 234.05 291.23C226.32 292.44 218.93 294.57 211.63 297.4C206.67 299.32 201.51 302.31 197.23 305.46C194.21 307.68 191.45 310.95 188.13 312.55C185.53 310.89 183.5 308.42 181.02 306.54C173.58 300.9 165.27 296.72 156.36 293.92C150.81 292.17 145.04 291.26 139.26 290.72C136.24 290.43 133.23 290.65 130.34 289.76C128.67 284.66 129.54 278.06 129.6 272.7C129.71 262.61 129.59 252.53 129.62 242.44C129.64 237.23 128.16 229.15 130.56 224.6C143.95 223.04 166.07 233.73 176.39 242.12C180.77 245.69 184.17 251.51 188.91 254.35ZM182.7 271.37C185.59 267.43 178.62 261.56 175.8 259.04C168.52 252.51 160.04 248.2 150.7 245.42C147.12 244.36 142.82 242.62 139.23 243.99C138.6 246.16 138.58 247.09 139.26 249.25C142.12 250.57 145.37 250.78 148.43 251.57C153.45 252.86 158.24 254.9 162.82 257.28C167.65 259.79 172 263 176.26 266.35C178.4 268.04 180.25 270.24 182.7 271.37ZM238.02 243.99C234.46 242.84 230.5 244.22 226.96 245.24C217.78 247.87 208.4 252.61 201.38 259.16C197.92 262.39 193.57 266 194.34 271.02C196.77 271.17 205.28 263.09 208.09 261.22C219 253.98 226.24 253.26 237.99 249.42C238.97 247.33 239 246.09 238.02 243.99ZM182.7 290.13C185.43 286.28 179.04 280.56 176.23 278.01C169.15 271.57 160.6 267.62 151.59 264.68C147.87 263.47 143.03 261.74 139.26 263.01C138.47 265.01 138.33 266 139.02 268.04C141.47 269.69 144.63 269.63 147.46 270.36C151.6 271.42 155.7 272.72 159.59 274.48C164.71 276.8 169.69 279.75 174.15 283.18C176.99 285.37 179.57 288.54 182.7 290.13ZM238.75 263.39C234.81 261.68 230.21 263.43 226.26 264.72C217.13 267.7 207.59 271.71 200.73 278.71C197.68 281.81 193.53 285.43 194.34 290.09C198.17 289.25 206.55 280.74 211.04 278.16C216.14 275.23 221.69 272.71 227.37 271.18C231.03 270.19 235.71 270.19 238.75 267.85C238.75 266.36 238.75 264.88 238.75 263.39Z" fill="#f08a1a" fill-rule="evenodd" stroke="#f08a1a" stroke-width="0.25" stroke-linejoin="round"/>
</svg>